<svg width="285" height="113" viewBox="0 0 285 113" fill="none" xmlns="http://www.w3.org/2000/svg">
<g filter="url(#filter0_d_617_3105)">
<rect x="10" y="10" width="261" height="89" rx="10" fill="white"/>
</g>
<rect x="37" y="25" width="57" height="57" rx="6" fill="#B6DB98"/>
<path d="M118.666 37.1328H110.984V47.7148H118.666V37.1328ZM113.199 45.9395V38.8906H116.434V45.9395H113.199ZM120.846 51.6172H123.096V43.5137H125.451V41.6504H123.096V35.6211H120.846V51.6172ZM133.851 37.7305V36.5703H131.461V37.7305C131.443 40.0508 129.36 42.5645 125.8 43.1973L126.767 45.0605C129.536 44.498 131.61 42.916 132.665 40.8857C133.702 42.9336 135.767 44.5068 138.562 45.0605L139.546 43.1973C135.925 42.582 133.842 40.0771 133.851 37.7305ZM125.431 49.6484H140.074V47.8027H125.431V49.6484ZM153.484 37.0273H142.058V38.8203H151.286V38.8906C151.286 39.7168 151.278 40.543 151.242 41.4219L141.566 41.7734L141.847 43.5664L151.128 43.1094C151.014 44.1904 150.829 45.3682 150.513 46.6953L152.745 46.9062C153.475 43.4346 153.475 41.2197 153.484 38.8906V37.0273ZM140.388 49.7012H154.978V47.873H140.388V49.7012ZM173.483 41.9844H158.893V43.7422H165.063V44.7793H160.58V46.4492H169.493V47.3105H160.598V51.5117H172.129V49.8242H162.795V48.875H171.707V44.7793H167.295V43.7422H173.483V41.9844ZM159.543 39.8574L160.246 41.5449C163.182 41.3252 165.212 40.3848 166.17 39.0488C167.128 40.3936 169.185 41.3252 172.147 41.5449L172.85 39.8574C169.888 39.6641 168.201 38.7676 167.682 37.8008H172.164V36.0781H160.229V37.8008H164.676C164.158 38.7764 162.488 39.6641 159.543 39.8574Z" fill="black"/>
<path d="M182.266 40.5781V40.1719H185.359V39.1719H177.875V40.1719H181.031V40.6094C181.023 42.4219 179.555 44.0469 177.453 44.7031L178.062 45.6562C179.758 45.125 181.07 43.9766 181.672 42.4844C182.289 43.7969 183.547 44.8203 185.156 45.2969L185.734 44.3438C183.688 43.7422 182.25 42.2344 182.266 40.5781ZM179.562 47.1719H187.203V48.6094H179.594V52.1406H188.938V51.1719H180.797V49.5156H188.422V46.1875H179.562V47.1719ZM187.203 45.5469H188.422V42.4375H190.516V41.4219H188.422V38.375H187.203V45.5469ZM201.541 38.375H200.322V52.2969H201.541V44.9375H203.869V43.9062H201.541V38.375ZM191.337 40.6875H196.431V43.625H191.369V48.9375H192.478C195.158 48.9219 197.009 48.8203 199.197 48.4219L199.072 47.4062C196.97 47.7969 195.166 47.8984 192.587 47.8906V44.6406H197.65V39.6719H191.337V40.6875ZM208.909 42.1094V39.5781H207.659V42.1094C207.652 44.6719 206.042 47.3438 204.003 48.3438L204.8 49.3281C206.378 48.4922 207.683 46.7109 208.3 44.6328C208.917 46.6094 210.222 48.2656 211.8 49.0781L212.534 48.0781C210.519 47.1562 208.902 44.625 208.909 42.1094ZM211.019 44.125H214.316V52.2969H215.534V38.375H214.316V43.125H211.019V44.125Z" fill="black"/>
<path d="M114.719 61.2969V58.6875H113.531V61.375C113.539 63.7578 112.344 66.2344 110.406 67.3438L111.203 68.25C112.586 67.4219 113.617 65.8672 114.133 64.0469C114.633 65.7188 115.594 67.1406 116.938 67.9062L117.672 66.9375C115.82 65.9375 114.719 63.5781 114.719 61.2969ZM118.188 70.5625H119.375V63.9844H121.281V71.2656H122.469V57.375H121.281V62.9688H119.375V57.6719H118.188V70.5625ZM136.462 63.2188H123.791V64.2031H136.462V63.2188ZM125.322 66.4062H133.619V67.75H125.353V71.1094H135.244V70.1094H126.572V68.6719H134.822V65.4531H125.322V66.4062ZM125.478 62.0781H134.947V61.0781H126.712V58.8438H134.806V57.8594H125.478V62.0781ZM143.347 57.625C140.245 57.625 138.425 58.4766 138.425 60.0156C138.425 61.5938 140.245 62.4453 143.347 62.4531C146.433 62.4453 148.245 61.5938 148.253 60.0156C148.245 58.4766 146.433 57.625 143.347 57.625ZM137.019 64.3906H149.675V63.3906H137.019V64.3906ZM138.55 66.5312H146.847V67.7969H138.581V71.1094H148.472V70.1406H139.8V68.7031H148.05V65.5938H138.55V66.5312ZM139.706 60.0156C139.691 59.1016 141.042 58.5547 143.347 58.5469C145.652 58.5547 146.995 59.1016 147.003 60.0156C146.995 60.9844 145.652 61.5156 143.347 61.5156C141.042 61.5156 139.691 60.9844 139.706 60.0156ZM164.647 58.2812H155.256V59.2969H163.428V59.5C163.428 60.7969 163.428 62.25 163.006 64.25H153.662V65.2656H159.35V71.2969H160.584V65.2656H166.319V64.25H164.248C164.647 62.2578 164.647 60.8125 164.647 59.5V58.2812ZM173.828 59.7812H170.969V57.7969H169.75V59.7812H166.859V60.7812H173.828V59.7812ZM167.359 64.875C167.359 66.7422 168.617 68.0547 170.344 68.0625C172.094 68.0547 173.344 66.7422 173.359 64.875C173.344 63.0312 172.094 61.7266 170.344 61.7188C168.617 61.7266 167.359 63.0312 167.359 64.875ZM168.453 64.875C168.453 63.6562 169.242 62.7656 170.344 62.75C171.453 62.7656 172.266 63.6562 172.266 64.875C172.266 66.1094 171.453 66.9922 170.344 66.9844C169.242 66.9922 168.453 66.1094 168.453 64.875ZM174.547 70.5781H175.703V64.25H177.547V71.2656H178.719V57.375H177.547V63.2344H175.703V57.7188H174.547V70.5781ZM183.838 58.4531C181.775 58.4609 180.33 60.3438 180.338 63.2969C180.33 66.2578 181.775 68.1328 183.838 68.125C185.884 68.1328 187.338 66.2578 187.353 63.2969C187.338 60.3438 185.884 58.4609 183.838 58.4531ZM181.494 63.2969C181.502 61.0391 182.463 59.5547 183.838 59.5469C185.228 59.5547 186.166 61.0391 186.166 63.2969C186.166 65.5547 185.228 67.0391 183.838 67.0312C182.463 67.0391 181.502 65.5547 181.494 63.2969ZM189.65 71.2656H190.869V66.0469H193.119V65.0156H190.869V61.9219H193.119V60.875H190.869V57.375H189.65V71.2656ZM198.316 61.6406V59.8281H201.628V58.8125H193.8V59.8281H197.081V61.6406C197.073 64.0469 195.339 66.6719 193.347 67.625L194.081 68.5938C195.667 67.7969 197.073 66.0312 197.722 63.9922C198.37 65.9141 199.769 67.5156 201.394 68.25L202.081 67.2812C200.034 66.3984 198.323 64 198.316 61.6406ZM203.566 71.2656H204.8V57.375H203.566V71.2656ZM208.825 58.6875H207.294L207.403 66.8125H208.716L208.825 58.6875ZM207.059 69.0781C207.044 69.6328 207.512 70.0859 208.059 70.0938C208.614 70.0859 209.067 69.6328 209.059 69.0781C209.067 68.5312 208.614 68.0781 208.059 68.0781C207.512 68.0781 207.044 68.5312 207.059 69.0781Z" fill="black"/>
<defs>
<filter id="filter0_d_617_3105" x="0" y="0" width="285" height="113" filterUnits="userSpaceOnUse" color-interpolation-filters="sRGB">
<feFlood flood-opacity="0" result="BackgroundImageFix"/>
<feColorMatrix in="SourceAlpha" type="matrix" values="0 0 0 0 0 0 0 0 0 0 0 0 0 0 0 0 0 0 127 0" result="hardAlpha"/>
<feMorphology radius="3" operator="dilate" in="SourceAlpha" result="effect1_dropShadow_617_3105"/>
<feOffset dx="2" dy="2"/>
<feGaussianBlur stdDeviation="4.5"/>
<feComposite in2="hardAlpha" operator="out"/>
<feColorMatrix type="matrix" values="0 0 0 0 0 0 0 0 0 0 0 0 0 0 0 0 0 0 0.12 0"/>
<feBlend mode="normal" in2="BackgroundImageFix" result="effect1_dropShadow_617_3105"/>
<feBlend mode="normal" in="SourceGraphic" in2="effect1_dropShadow_617_3105" result="shape"/>
</filter>
</defs>
</svg>
