<svg width="285" height="113" viewBox="0 0 285 113" fill="none" xmlns="http://www.w3.org/2000/svg">
<g filter="url(#filter0_d_617_3089)">
<rect x="10" y="10" width="261" height="89" rx="10" fill="white"/>
</g>
<rect x="37" y="25" width="57" height="57" rx="6" fill="#E9C8A2"/>
<path d="M123.957 35.6211H121.725V39.4355H118.982V41.2637H121.725V44.9902H123.957V35.6211ZM111.23 44.5332H112.479C115.458 44.5332 117.269 44.4629 119.316 44.1113L119.123 42.3184C117.348 42.6172 115.81 42.6875 113.463 42.7051V41.334H118.051V39.6113H113.463V38.293H118.543V36.5352H111.23V44.5332ZM113.199 51.4414H123.957V45.6758H113.199V51.4414ZM115.449 49.6484V47.4688H121.76V49.6484H115.449ZM129.509 35.8848H127.295V41.2637H138.158V35.8848H135.925V37.0098H129.509V35.8848ZM125.431 43.8828H140.021V42.1426H125.431V43.8828ZM127.119 46.4668H136.031V47.3105H127.136V51.5117H138.668V49.8242H129.334V48.875H138.246V44.832H127.119V46.4668ZM129.509 39.5938V38.627H135.925V39.5938H129.509ZM153.87 35.6211H151.638V41.3867H149.054V43.2148H151.638V51.6523H153.87V35.6211ZM140.915 38.7676H145.978V41.1758H140.95V47.9258H142.269C144.949 47.9346 147.12 47.8467 149.493 47.4512L149.318 45.623C147.252 45.9834 145.389 46.0625 143.183 46.0801V42.9512H148.157V36.957H140.915V38.7676Z" fill="black"/>
<path d="M118.5 58.7031H111V59.7031H112.406V64.4922C111.773 64.5078 111.172 64.5156 110.609 64.5156L110.75 65.5312C113.164 65.5391 116.43 65.4688 119.25 65.0312L119.156 64.1094C118.492 64.1875 117.789 64.2578 117.078 64.3047V59.7031H118.5V58.7031ZM112.734 70.9688H122.062V69.9375H113.938V66.6406H112.734V70.9688ZM113.609 64.4688V59.7031H115.875V64.3828C115.117 64.4219 114.352 64.4531 113.609 64.4688ZM120.203 67.6094H121.422V62.6562H123.516V61.6094H121.422V57.3906H120.203V67.6094ZM134.541 57.375H133.322V71.2969H134.541V63.9062H136.869V62.875H134.541V57.375ZM124.4 67.8125H125.494C128.134 67.8125 129.955 67.7344 132.134 67.3438L131.978 66.2812C129.908 66.6641 128.134 66.7734 125.619 66.7812V59.75H130.884V58.7344H124.4V67.8125ZM149.722 63.8281H137.003V64.7969H149.722V63.8281ZM138.534 66.8281H146.909V68.0156H138.55V71.0781H148.581V70.1875H139.784V68.8594H148.128V65.9062H138.534V66.8281ZM138.612 58.6875H146.847V59.8281H138.659V62.7812H148.331V61.8906H139.878V60.6719H148.081V57.7969H138.612V58.6875ZM158.631 61.6406V59.8281H161.944V58.8125H154.116V59.8281H157.397V61.6406C157.389 64.0469 155.655 66.6719 153.662 67.625L154.397 68.5938C155.983 67.7969 157.389 66.0312 158.037 63.9922C158.686 65.9141 160.084 67.5156 161.709 68.25L162.397 67.2812C160.35 66.3984 158.639 64 158.631 61.6406ZM163.881 71.2656H165.116V57.375H163.881V71.2656ZM173.953 58.8281H167.656V59.8438H172.742C172.68 60.7031 172.539 61.5234 172.281 62.3047L166.953 62.6562L167.172 63.7188L171.906 63.2734C171.039 65.1484 169.461 66.75 166.906 68.0312L167.609 68.9688C171.055 67.2422 172.781 64.9141 173.508 62.2969H177.172V64.9844H173.328V65.9844H177.172V71.2656H178.391V57.3594H177.172V61.2812H173.742C173.883 60.4844 173.953 59.6641 173.953 58.8281ZM183.838 58.4531C181.775 58.4609 180.33 60.3438 180.338 63.2969C180.33 66.2578 181.775 68.1328 183.838 68.125C185.884 68.1328 187.338 66.2578 187.353 63.2969C187.338 60.3438 185.884 58.4609 183.838 58.4531ZM181.494 63.2969C181.502 61.0391 182.463 59.5547 183.838 59.5469C185.228 59.5547 186.166 61.0391 186.166 63.2969C186.166 65.5547 185.228 67.0391 183.838 67.0312C182.463 67.0391 181.502 65.5547 181.494 63.2969ZM189.65 71.2656H190.869V66.0469H193.119V65.0156H190.869V61.9219H193.119V60.875H190.869V57.375H189.65V71.2656ZM198.316 61.6406V59.8281H201.628V58.8125H193.8V59.8281H197.081V61.6406C197.073 64.0469 195.339 66.6719 193.347 67.625L194.081 68.5938C195.667 67.7969 197.073 66.0312 197.722 63.9922C198.37 65.9141 199.769 67.5156 201.394 68.25L202.081 67.2812C200.034 66.3984 198.323 64 198.316 61.6406ZM203.566 71.2656H204.8V57.375H203.566V71.2656Z" fill="black"/>
<path d="M162.672 40.3438V40.2812H165.188V39.2969H162.672V37.6562H161.516V39.2969H158.953V40.2812H161.516V40.3438C161.5 42.0469 160.445 43.8047 158.672 44.5781L159.297 45.4844C160.672 44.875 161.641 43.7109 162.125 42.3438C162.617 43.6016 163.586 44.6484 164.938 45.1875L165.531 44.25C163.766 43.5703 162.672 41.9453 162.672 40.3438ZM161.109 48.7812C161.094 50.3438 162.859 51.2344 165.766 51.2344C168.664 51.2344 170.43 50.3438 170.438 48.7812C170.43 47.2031 168.664 46.2891 165.766 46.2969C162.859 46.2891 161.094 47.2031 161.109 48.7812ZM162.328 48.7812C162.312 47.8203 163.633 47.2578 165.766 47.2656C167.875 47.2578 169.203 47.8203 169.219 48.7812C169.203 49.7109 167.875 50.2656 165.766 50.2656C163.633 50.2656 162.312 49.7109 162.328 48.7812ZM166.188 45.5625H167.375V42.1406H169.188V46.0781H170.359V37.3906H169.188V41.1406H167.375V37.6562H166.188V45.5625ZM178.837 38.8906H172.416V39.8906H177.603C177.345 43.1719 175.502 45.8516 171.806 47.6406L172.447 48.6406C175.728 47.0469 177.564 44.7812 178.361 42.2031H182.072V44.9062H178.15V45.9219H182.072V51.2656H183.291V37.3594H182.072V41.2031H178.611C178.767 40.4531 178.837 39.6797 178.837 38.8906Z" fill="black"/>
<defs>
<filter id="filter0_d_617_3089" x="0" y="0" width="285" height="113" filterUnits="userSpaceOnUse" color-interpolation-filters="sRGB">
<feFlood flood-opacity="0" result="BackgroundImageFix"/>
<feColorMatrix in="SourceAlpha" type="matrix" values="0 0 0 0 0 0 0 0 0 0 0 0 0 0 0 0 0 0 127 0" result="hardAlpha"/>
<feMorphology radius="3" operator="dilate" in="SourceAlpha" result="effect1_dropShadow_617_3089"/>
<feOffset dx="2" dy="2"/>
<feGaussianBlur stdDeviation="4.5"/>
<feComposite in2="hardAlpha" operator="out"/>
<feColorMatrix type="matrix" values="0 0 0 0 0 0 0 0 0 0 0 0 0 0 0 0 0 0 0.12 0"/>
<feBlend mode="normal" in2="BackgroundImageFix" result="effect1_dropShadow_617_3089"/>
<feBlend mode="normal" in="SourceGraphic" in2="effect1_dropShadow_617_3089" result="shape"/>
</filter>
</defs>
</svg>
