<svg width="285" height="113" viewBox="0 0 285 113" fill="none" xmlns="http://www.w3.org/2000/svg">
<g filter="url(#filter0_d_617_3097)">
<rect x="10" y="10" width="261" height="89" rx="10" fill="white"/>
</g>
<rect x="37" y="25" width="57" height="57" rx="6" fill="#9BCAE4"/>
<path d="M124.467 35.6211H122.305V51.6172H124.467V35.6211ZM110.299 46.1152L110.545 47.9609C112.549 47.9609 115.818 47.8994 118.35 47.3633L118.191 45.7461C117.787 45.8076 117.356 45.8516 116.908 45.8955V39.2422H117.928V37.4316H110.598V39.2422H111.635V46.1152C111.151 46.1152 110.694 46.1152 110.299 46.1152ZM113.621 46.0801V39.2422H114.869V46.0361C114.447 46.0537 114.034 46.0713 113.621 46.0801ZM117.559 43.4434H119.105V50.8613H121.232V35.9375H119.105V41.4395H117.559V43.4434ZM138.474 43.8828H129.439V42.0547H137.982V40.2969H129.439V38.6094H138.351V36.7988H127.154V45.6582H138.474V43.8828ZM125.431 49.7539H140.074V47.9258H125.431V49.7539ZM143.323 36.5879H141.073V44.252H148.685V43.0391H151.638V45.1836H153.87V35.6211H151.638V37.9766H148.685V36.5879H146.47V38.75H143.323V36.5879ZM142.902 48.5586C142.902 50.501 144.993 51.626 148.404 51.6172C151.822 51.626 153.914 50.501 153.923 48.5586C153.914 46.5986 151.822 45.4561 148.404 45.4473C144.993 45.4561 142.902 46.5986 142.902 48.5586ZM143.323 42.5117V40.4727H146.47V42.5117H143.323ZM145.134 48.5586C145.134 47.6182 146.285 47.1611 148.404 47.1699C150.53 47.1611 151.682 47.6182 151.691 48.5586C151.682 49.4551 150.53 49.9121 148.404 49.9121C146.285 49.9121 145.134 49.4551 145.134 48.5586ZM148.685 41.2461V39.752H151.638V41.2461H148.685ZM171.514 35.6211H169.299V51.6523H171.514V43.5137H173.87V41.668H171.514V35.6211ZM159.543 38.7676H164.711V41.3867H159.561V47.9258H160.914C163.727 47.9258 165.924 47.8291 168.368 47.3809L168.174 45.5879C166.047 45.9482 164.122 46.0537 161.793 46.0625V43.1621H166.944V36.957H159.543V38.7676ZM187.596 35.6387H185.469V43.9004H187.596V35.6387ZM174.412 43.373H180.793V40.7715H182.217V43.8301H184.291V35.9023H182.217V38.9785H180.793V36.5176H178.719V38.2578H176.539V36.5176H174.412V43.373ZM176.539 41.6504V39.9277H178.719V41.6504H176.539ZM176.645 46.2383H185.346V47.1348H176.662V51.5117H188.141V49.7891H178.93V48.7695H187.596V44.5156H176.645V46.2383Z" fill="black"/>
<path d="M121.312 57.375H120.094V71.2656H121.312V63.9062H123.641V62.8438H121.312V57.375ZM111.141 67.9375H117.641V58.5625H116.422V62.2344H112.359V58.5625H111.141V67.9375ZM112.359 66.9062V63.2188H116.422V66.9062H112.359ZM134.65 57.375H133.431V66.5469H134.65V62.3125H136.744V61.2812H134.65V57.375ZM124.431 64.7969H125.509C128.447 64.8047 130.111 64.6953 132.056 64.3281L131.931 63.3125C130.064 63.6953 128.447 63.7812 125.634 63.7812V59.4688H130.603V58.4531H124.431V64.7969ZM125.134 70.2344L125.619 71.2031C127.681 70.8203 129.595 69.7578 130.447 68.1484C131.275 69.7578 133.181 70.8203 135.244 71.2031L135.744 70.2344C133.283 69.8125 131.033 68.3516 131.041 66.3281V65.8125H129.822V66.3281C129.822 68.3516 127.58 69.8125 125.134 70.2344ZM148.159 58.7812H138.362V59.7969H146.925V60.1719C146.917 61.8359 146.917 63.7812 146.394 66.4375L147.644 66.5781C148.144 63.7812 148.144 61.875 148.159 60.1719V58.7812ZM137.019 69.2969H149.675V68.2812H143.191V63.3125H141.987V68.2812H137.019V69.2969ZM155.919 58.8906H150.684V59.9219H154.731V62.7344H150.716V67.9375H151.622C153.372 67.9375 154.942 67.875 156.919 67.5312L156.809 66.5312C155.013 66.8359 153.505 66.8984 151.903 66.9062V63.75H155.919V58.8906ZM157.778 70.5469H158.903V63.8906H160.95V71.2656H162.122V57.375H160.95V62.875H158.903V57.6875H157.778V70.5469ZM176.178 63.8281H163.459V64.7969H176.178V63.8281ZM164.991 66.8281H173.366V68.0156H165.006V71.0781H175.037V70.1875H166.241V68.8594H174.584V65.9062H164.991V66.8281ZM165.069 58.6875H173.303V59.8281H165.116V62.7812H174.787V61.8906H166.334V60.6719H174.537V57.7969H165.069V58.6875ZM184.775 58.9688V57.8594H183.572V58.9688C183.564 61.0469 182.142 62.7812 180.041 63.5L180.666 64.4844C182.33 63.8828 183.611 62.6641 184.205 61.0547C184.806 62.4531 186.017 63.5234 187.572 64.0625L188.228 63.1094C186.197 62.4609 184.775 60.8359 184.775 58.9688ZM182.119 66.25H189.759V67.6406H182.15V71.1094H191.494V70.1094H183.353V68.5781H190.978V65.2656H182.119V66.25ZM189.759 64.6406H190.978V61.4531H193.072V60.4219H190.978V57.375H189.759V64.6406ZM204.847 57.375H203.628V60.5469H200.847V61.5781H203.628V64.3438H200.738V65.375H203.628V71.2969H204.847V57.375ZM193.831 59.6562H198.738V62.5781H193.878V68.0469H194.909C197.128 68.0469 198.909 67.9688 201.128 67.625L201.019 66.5938C198.909 66.9219 197.183 67 195.097 67V63.5781H199.941V58.6406H193.831V59.6562ZM210.294 58.4531C208.231 58.4609 206.786 60.3438 206.794 63.2969C206.786 66.2578 208.231 68.1328 210.294 68.125C212.341 68.1328 213.794 66.2578 213.809 63.2969C213.794 60.3438 212.341 58.4609 210.294 58.4531ZM207.95 63.2969C207.958 61.0391 208.919 59.5547 210.294 59.5469C211.684 59.5547 212.622 61.0391 212.622 63.2969C212.622 65.5547 211.684 67.0391 210.294 67.0312C208.919 67.0391 207.958 65.5547 207.95 63.2969ZM216.106 71.2656H217.325V66.0469H219.575V65.0156H217.325V61.9219H219.575V60.875H217.325V57.375H216.106V71.2656ZM224.772 61.6406V59.8281H228.084V58.8125H220.256V59.8281H223.537V61.6406C223.53 64.0469 221.795 66.6719 219.803 67.625L220.537 68.5938C222.123 67.7969 223.53 66.0312 224.178 63.9922C224.827 65.9141 226.225 67.5156 227.85 68.25L228.537 67.2812C226.491 66.3984 224.78 64 224.772 61.6406ZM230.022 71.2656H231.256V57.375H230.022V71.2656Z" fill="black"/>
<path d="M203.016 37.7188H201.875V42.5938H199.797V43.625H201.875V50.5469H203.016V37.7188ZM193.984 47.6406H194.531C195.102 47.6484 195.984 47.6484 197.125 47.375L197.031 46.3438C196.297 46.5234 195.633 46.5859 195.125 46.6016V40.1406H196.844V39.125H193.984V47.6406ZM197.516 47.6094H198.078C198.938 47.6016 199.938 47.5781 201.125 47.2656L201.016 46.25C200.133 46.4922 199.312 46.5625 198.625 46.5781V40.1406H200.688V39.125H197.516V47.6094ZM204.453 51.2656H205.625V37.375H204.453V51.2656ZM211.681 41.1094V38.5781H210.431V41.1094C210.423 43.6719 208.814 46.3438 206.775 47.3438L207.572 48.3281C209.15 47.4922 210.455 45.7109 211.072 43.6328C211.689 45.6094 212.994 47.2656 214.572 48.0781L215.306 47.0781C213.291 46.1562 211.673 43.625 211.681 41.1094ZM213.791 43.125H217.087V51.2969H218.306V37.375H217.087V42.125H213.791V43.125Z" fill="black"/>
<defs>
<filter id="filter0_d_617_3097" x="0" y="0" width="285" height="113" filterUnits="userSpaceOnUse" color-interpolation-filters="sRGB">
<feFlood flood-opacity="0" result="BackgroundImageFix"/>
<feColorMatrix in="SourceAlpha" type="matrix" values="0 0 0 0 0 0 0 0 0 0 0 0 0 0 0 0 0 0 127 0" result="hardAlpha"/>
<feMorphology radius="3" operator="dilate" in="SourceAlpha" result="effect1_dropShadow_617_3097"/>
<feOffset dx="2" dy="2"/>
<feGaussianBlur stdDeviation="4.5"/>
<feComposite in2="hardAlpha" operator="out"/>
<feColorMatrix type="matrix" values="0 0 0 0 0 0 0 0 0 0 0 0 0 0 0 0 0 0 0.12 0"/>
<feBlend mode="normal" in2="BackgroundImageFix" result="effect1_dropShadow_617_3097"/>
<feBlend mode="normal" in="SourceGraphic" in2="effect1_dropShadow_617_3097" result="shape"/>
</filter>
</defs>
</svg>
